
<svg xmlns="http://www.w3.org/2000/svg" viewBox="0 0 64 64">
  <defs>
    <linearGradient id="g" x1="0" x2="1" y1="0" y2="1">
      <stop offset="0" stop-color="#4da3ff"/>
      <stop offset="1" stop-color="#2d7ee6"/>
    </linearGradient>
  </defs>
  <rect width="64" height="64" rx="12" fill="#0b0d12"/>
  <path d="M18 44V20h9.8c3.7 0 6.2 2.1 6.2 5.4 0 2.7-1.7 4.6-4.5 5.1 3.4.4 5.5 2.6 5.5 5.9 0 3.8-2.9 7.6-8.6 7.6H18zm6-13.7h3.2c2 0 3.2-1 3.2-2.8s-1.2-2.8-3.2-2.8H24v5.6zm0 9.5h3.6c2.6 0 4.1-1.3 4.1-3.4s-1.5-3.4-4.1-3.4H24v6.8z" fill="url(#g)"/>
  <text x="36" y="44" font-family="Segoe UI, Arial, sans-serif" font-size="14" fill="#82e0aa" font-weight="700">VD</text>
</svg>